<?xml version="1.0" encoding="UTF-8"?>
<!DOCTYPE svg PUBLIC "-//W3C//DTD SVG 1.1//EN" "http://www.w3.org/Graphics/SVG/1.1/DTD/svg11.dtd">
<!-- Creator: CorelDRAW 2018 (64-Bit) -->
<svg xmlns="http://www.w3.org/2000/svg" xml:space="preserve" width="5.002in" height="1.08174in" version="1.1" style="shape-rendering:geometricPrecision; text-rendering:geometricPrecision; image-rendering:optimizeQuality; fill-rule:evenodd; clip-rule:evenodd"
viewBox="0 0 5037.05 1089.32"
 xmlns:xlink="http://www.w3.org/1999/xlink">
 <defs>
  <style type="text/css">
   <![CDATA[
    .fil0 {fill:none}
    .fil1 {fill:#053C69;fill-rule:nonzero}
   ]]>
  </style>
 </defs>
 <g id="Layer_x0020_1">
  <metadata id="CorelCorpID_0Corel-Layer"/>
  <rect class="fil0" x="-0" width="5037.05" height="1089.32"/>
  <path class="fil1" d="M517.52 819.32l74.71 -541.81 111.67 0 -6.66 48.24c2.67,-2.44 5.42,-4.81 8.26,-7.09 12.71,-10.22 27.11,-18.84 43.39,-26.17 18.55,-8.61 39.73,-14.14 69.37,-17.45 28.9,-3.22 65.84,-4.4 116.53,-4.4 2.7,0 3.86,0.04 6.22,0.1l19.99 0.33 -14.03 101.76c-6.05,-0.25 -12.55,-0.78 -18.57,-0.78 -3.1,-0.14 -4.61,-0.21 -12.87,-0.21 -97.4,0 -155.28,7.37 -190.53,36.15 -34.96,28.54 -50.23,80.63 -62.58,170.21l-35.43 256.95 -111.67 0 2.18 -15.84zm2633.44 0l74.7 -541.81 111.67 0 -6.65 48.24c2.67,-2.44 5.42,-4.81 8.26,-7.09 12.71,-10.22 27.11,-18.84 43.39,-26.17 18.55,-8.61 39.73,-14.14 69.37,-17.45 28.9,-3.22 65.84,-4.4 116.53,-4.4 2.7,0 3.86,0.04 6.22,0.1l19.99 0.33 -14.03 101.76c-6.05,-0.25 -12.54,-0.78 -18.56,-0.78 -3.1,-0.14 -4.61,-0.21 -12.87,-0.21 -97.4,0 -155.29,7.37 -190.53,36.15 -34.96,28.54 -50.23,80.63 -62.58,170.21l-35.43 256.95 -111.67 0 2.19 -15.84zm-2950.68 -201.35l65.09 -472.02 111.67 0 -18.15 131.56 185.33 0 -13.79 100.04 -185.33 0 -29.84 216.4 -0.15 1.45c-10.84,94.04 -11.26,97.77 -0.08,114.98 7.15,10.34 18.32,17.67 36.14,22.55 19.96,5.48 47.92,7.89 86.84,7.89l11.35 -0.02 10.56 -0.22 16.45 -0.47 -13.92 100.93 -11.78 0.4c-4.72,0.16 -9.77,0.29 -15.13,0.37l-15.63 0.18c-57.94,0 -102.12,-4.48 -135.35,-14.47 -35.44,-10.66 -58.85,-27.59 -73.24,-51.9l-0.06 -0.16c-10.33,-17.92 -16.14,-36.04 -17.72,-61.12 -1.5,-23.69 0.85,-53.7 6.74,-96.4zm4357.9 122.84l44.55 -0.1 16.19 -0.21 -13.96 101.22 -12.06 0.14 -142.78 0.16c-92.05,0 -158.36,-3.21 -207.32,-11.09 -50.75,-8.17 -83.25,-21.52 -106.19,-41.55 -24.87,-21.5 -41.39,-52.11 -49.55,-91.97 -7.83,-38.31 -7.91,-85.34 -0.21,-141.21 9.15,-66.41 24.41,-118.92 46.98,-159.88 23.13,-41.99 53.82,-71.86 93.31,-92.05 24.83,-12.75 53.38,-21.23 92.31,-26.45 38.18,-5.13 86.22,-7.18 150.68,-7.18 92.51,0 154.45,3.83 199.08,14.74 46.91,11.46 74.8,30.54 97.6,60.61l0.22 0.27c18.21,25.43 28.61,51.15 32.41,87.52 3.64,34.81 1.07,79.19 -6.58,143.06l-1.48 12.35 -590.01 0c-2.31,27.34 -2.24,49.68 0.43,67.98 2.84,19.49 8.69,34.15 17.82,45.32 11.58,13.97 29.94,23.27 63.44,29.31 36.15,6.52 89.13,9.02 168,9.02l107.12 -0.02zm-281.09 -342.37c-30.37,17.18 -46.94,45.76 -58.55,90.71l465.25 0c4.14,-45.21 -3.65,-73.77 -31.17,-90.5 -33.18,-20.17 -94.44,-26.8 -194.87,-26.8 -89.12,0 -145,6.42 -180.66,26.59zm-2168 342.37l44.55 -0.1 16.19 -0.21 -13.96 101.22 -12.06 0.14 -142.78 0.16c-92.06,0 -158.36,-3.21 -207.32,-11.09 -50.75,-8.17 -83.25,-21.52 -106.19,-41.55 -24.87,-21.5 -41.39,-52.11 -49.55,-91.97 -7.83,-38.31 -7.91,-85.34 -0.21,-141.21 9.15,-66.41 24.41,-118.92 46.98,-159.88 23.13,-41.99 53.82,-71.86 93.31,-92.05 24.83,-12.75 53.37,-21.23 92.3,-26.45 38.18,-5.12 86.21,-7.18 150.69,-7.18 92.5,0 154.45,3.83 199.07,14.74 46.9,11.46 74.8,30.54 97.6,60.61l0.22 0.27c18.21,25.43 28.62,51.15 32.42,87.52 3.64,34.81 1.06,79.19 -6.58,143.06l-1.47 12.35 -590.02 0c-2.31,27.34 -2.24,49.68 0.43,67.98 2.84,19.5 8.69,34.15 17.82,45.32 11.58,13.96 29.93,23.27 63.43,29.31 36.15,6.52 89.13,9.02 168.01,9.02l107.12 -0.02zm-281.09 -342.37c-30.37,17.19 -46.94,45.77 -58.55,90.71l465.25 0c4.14,-45.21 -3.65,-73.77 -31.17,-90.5 -33.18,-20.17 -94.44,-26.8 -194.87,-26.8 -89.12,0 -145,6.42 -180.66,26.59zm1938.18 219.54l65.08 -472.02 111.67 0 -18.14 131.56 185.33 0 -13.79 100.04 -185.33 0 -29.84 216.4 -0.15 1.45c-10.84,94.04 -11.26,97.77 -0.08,114.98 7.15,10.34 18.32,17.67 36.14,22.55 19.97,5.48 47.92,7.89 86.84,7.89l11.35 -0.02 10.56 -0.22 16.44 -0.47 -13.92 100.93 -11.77 0.4c-4.72,0.16 -9.77,0.29 -15.13,0.37l-15.63 0.18c-57.94,0 -102.12,-4.48 -135.35,-14.47 -35.44,-10.66 -58.85,-27.59 -73.24,-51.9l-0.06 -0.16c-10.33,-17.92 -16.14,-36.04 -17.72,-61.12 -1.5,-23.69 0.85,-53.7 6.74,-96.4zm-208.46 201.34l67.16 -487.08 111.67 0 -69.34 502.93 -111.67 0 2.19 -15.85zm77.46 -561.74l15.39 -111.66 111.67 0 -17.58 127.51 -111.67 0 2.19 -15.85zm-1201.36 768.64l-99.52 0 103.24 -748.69 111.67 0 -6.22 45.12c18.33,-16.93 39.41,-28.76 67.83,-36.85 40.61,-11.57 95.96,-15.13 180.73,-15.13 74.86,0 127.51,2.35 167.42,8.65 41.3,6.53 68.87,17.29 92.49,33.96 32.11,22.01 52.6,50.88 62.64,91.59 9.61,38.96 9.35,88.68 0.36,153.91 -8.84,64.11 -23.57,114.89 -45.74,155.01 -22.69,41.07 -53.01,70.91 -92.51,92.24l-0.06 0c-24.96,13.38 -55.67,22.46 -98.94,28.13 -42.37,5.54 -96.73,7.88 -169.75,7.88 -77.97,0 -129.54,-3.88 -166.32,-14.9 -27.78,-8.33 -47.15,-20.5 -62.51,-37.77l-32.66 236.86 -12.16 0zm546.4 -621.21c-27.27,-25.99 -82.93,-33.16 -179.33,-33.16 -68.77,0 -117.11,1.96 -152.24,6.7 -33.57,4.54 -54.85,11.51 -70.67,21.72 -18.71,12.84 -32.88,29.64 -43.78,53.24 -11.43,24.74 -19.41,56.93 -25.28,99.54 -11.25,81.62 -9.62,129.13 17.84,154.52 28.48,26.33 86.84,33.27 188.5,33.27 64.07,0 109.51,-1.96 143.14,-6.84 32.24,-4.69 53.34,-11.98 69.8,-22.82 18.55,-12.29 32.66,-29.04 43.59,-52.95 11.48,-25.13 19.57,-58.2 25.62,-102.03 10.95,-79.39 9.2,-126.04 -17.19,-151.19zm-1610.72 335.81l44.55 -0.1 16.19 -0.21 -13.96 101.22 -12.06 0.14 -142.78 0.16c-92.06,0 -158.36,-3.21 -207.32,-11.09 -50.75,-8.17 -83.25,-21.52 -106.19,-41.55 -24.87,-21.5 -41.4,-52.11 -49.55,-91.97 -7.83,-38.31 -7.91,-85.34 -0.21,-141.21 9.15,-66.41 24.41,-118.92 46.98,-159.88 23.13,-41.99 53.82,-71.87 93.31,-92.05 24.83,-12.75 53.37,-21.23 92.3,-26.45 38.18,-5.12 86.22,-7.18 150.69,-7.18 92.51,0 154.45,3.83 199.08,14.74 46.9,11.46 74.8,30.54 97.6,60.61l0.22 0.33c18.21,25.44 28.62,51.15 32.41,87.46 3.64,34.81 1.07,79.19 -6.58,143.06l-1.47 12.35 -590.02 0c-2.31,27.34 -2.24,49.68 0.43,67.98 2.85,19.5 8.69,34.15 17.82,45.32 11.58,13.97 29.94,23.27 63.44,29.31 36.15,6.52 89.13,9.02 168,9.02l107.12 -0.02zm-281.08 -342.37c-30.38,17.19 -46.94,45.77 -58.55,90.71l465.25 0c4.14,-45.21 -3.65,-73.77 -31.17,-90.5 -33.18,-20.17 -94.44,-26.8 -194.87,-26.8 -89.12,0 -145,6.42 -180.65,26.59z"/>
 </g>
</svg>
