<?xml version="1.0" encoding="UTF-8"?>
<!DOCTYPE svg PUBLIC "-//W3C//DTD SVG 1.1//EN" "http://www.w3.org/Graphics/SVG/1.1/DTD/svg11.dtd">
<!-- Creator: CorelDRAW 2018 (64-Bit) -->
<svg xmlns="http://www.w3.org/2000/svg" xml:space="preserve" width="5.82677in" height="8.26772in" version="1.1" style="shape-rendering:geometricPrecision; text-rendering:geometricPrecision; image-rendering:optimizeQuality; fill-rule:evenodd; clip-rule:evenodd"
viewBox="0 0 5826.77 8267.72"
 xmlns:xlink="http://www.w3.org/1999/xlink">
 <defs>
  <style type="text/css">
   <![CDATA[
    .str0 {stroke:white;stroke-width:155.91;stroke-miterlimit:2.61313}
    .fil0 {fill:none}
    .fil1 {fill:#053C69}
    .fil2 {fill:white;fill-rule:nonzero}
   ]]>
  </style>
 </defs>
 <g id="Layer_x0020_1">
  <metadata id="CorelCorpID_0Corel-Layer"/>
  <g id="_2264058208992">
   <g>
    <path class="fil0 str0" d="M2913.4 5929.39c544.72,-491.06 1059.36,-750.34 1349.94,-1448.02 96.84,-232.5 149.91,-454.31 138.15,-741.2 -10.82,-263.97 -55.81,-457.69 -192.41,-688.02 -254.02,-428.31 -694.17,-668.32 -1154.45,-707.64 -46.19,-3.95 -93.67,-6.01 -141.23,-6.19 -47.56,0.18 -95.04,2.24 -141.23,6.19 -460.28,39.31 -900.43,279.33 -1154.45,707.64 -136.61,230.33 -181.6,424.05 -192.42,688.02 -11.76,286.89 41.31,508.7 138.15,741.2 290.59,697.67 805.22,956.96 1349.94,1448.02z"/>
    <path id="1" class="fil1" d="M2913.4 5929.39c544.72,-491.06 1059.36,-750.34 1349.94,-1448.02 96.84,-232.5 149.91,-454.31 138.15,-741.2 -10.82,-263.97 -55.81,-457.69 -192.41,-688.02 -254.02,-428.31 -694.17,-668.32 -1154.45,-707.64 -46.19,-3.95 -93.67,-6.01 -141.23,-6.19 -47.56,0.18 -95.04,2.24 -141.23,6.19 -460.28,39.31 -900.43,279.33 -1154.45,707.64 -136.61,230.33 -181.6,424.05 -192.42,688.02 -11.76,286.89 41.31,508.7 138.15,741.2 290.59,697.67 805.22,956.96 1349.94,1448.02z"/>
   </g>
   <path class="fil2" d="M4015.35 3856.47c0,-24.93 20.22,-45.14 45.14,-45.14 24.93,0 45.14,20.22 45.14,45.14 0,178.42 -40.02,352.35 -114.57,510.09 -74.42,157.51 -183.43,298.82 -321.47,412.29 -19.17,15.76 -47.52,13 -63.28,-6.17 -15.76,-19.17 -13,-47.52 6.17,-63.28 127.52,-104.82 228.27,-235.51 297.16,-381.27 68.79,-145.56 105.71,-306.37 105.71,-471.65z"/>
   <path class="fil2" d="M2209.13 4708.24c19.17,15.76 21.93,44.12 6.17,63.29 -15.76,19.17 -44.12,21.93 -63.28,6.17 -137.6,-113.47 -246.28,-254.67 -320.44,-411.95 -74.29,-157.53 -114.18,-331.24 -114.18,-509.27 0,-24.93 20.22,-45.14 45.14,-45.14 24.92,0 45.14,20.22 45.14,45.14 0,164.98 36.8,325.51 105.33,470.83 68.66,145.61 169.07,276.17 296.13,380.94z"/>
   <path class="fil2" d="M1623.5 3625.74c45.17,-250.41 162.53,-476.89 330.51,-656.35 218.13,-233.04 518.39,-386.13 859.48,-408.71l0 0.18c15.93,-0.98 32.07,-1.47 48.46,-1.46l0 2405.88c-100.23,-4.77 -196.69,-23.94 -287.35,-55.49l0 -2016.43c-159.54,53.31 -296.27,147.9 -411.81,271.33 -119.1,127.25 -205.44,285.48 -246.21,461.04l-293.07 0zm2570.56 0c-45.17,-250.41 -162.53,-476.89 -330.51,-656.35 -218.13,-233.04 -518.39,-386.13 -859.48,-408.71l0 0.18c-15.93,-0.98 -32.07,-1.47 -48.46,-1.46l0 2406.12c100.18,-4.24 196.63,-22.88 287.35,-53.88l0 -2018.28c159.54,53.31 296.27,147.9 411.81,271.33 119.1,127.25 205.44,285.48 246.21,461.04l293.07 0z"/>
   <path class="fil2" d="M2465.6 5096.89l-62.32 -28.09 -3.88 8.59 26.33 11.87 -30.51 67.69 9.67 4.36 30.51 -67.69 26.32 11.86 3.87 -8.59zm42.7 104.8l8.18 -28.92 21.32 6.03 10.2 34.12 11.57 3.27 -10.78 -36.37c10.94,0.28 20.49,-7.93 23.67,-19.15 3.59,-12.7 -2.93,-28.63 -17.11,-32.64l-34.47 -9.75 -22.77 80.52 10.2 2.89zm20.2 -71.45l23.7 6.7c7.82,2.21 12.48,11.73 9.92,20.81 -2.5,8.85 -10.3,15.21 -18.7,12.84l-24.39 -6.89 9.46 -33.46zm114.96 96.76l5.13 -28.42 38.63 6.97 1.57 -8.7 -38.63 -6.97 4.81 -26.67 44.43 8.02 1.67 -9.28 -54.86 -9.91 -14.87 82.35 55.9 10.09 1.67 -9.28 -45.46 -8.21zm129.53 19l2.19 -28.8 39.13 2.98 0.67 -8.81 -39.13 -2.98 2.06 -27.03 45.01 3.43 0.72 -9.4 -55.59 -4.23 -6.35 83.44 56.64 4.31 0.72 -9.4 -46.07 -3.51zm129.56 14.35l-0.81 -30.04 24.98 -0.68c14.73,-0.4 24.27,-13.74 23.89,-27.53 -0.36,-13.2 -11.33,-26.46 -26.06,-26.06l-34.87 0.94 2.27 83.65 10.6 -0.29zm-2.01 -74.22l23.68 -0.64c8.13,-0.22 15.4,7.01 15.67,16.91 0.26,9.54 -5.3,17.59 -14.02,17.83l-24.39 0.66 -0.94 -34.76zm134.55 65.15l-3.73 -29.82 21.98 -2.75 22.68 27.45 11.93 -1.49 -24.1 -29.29c10.19,-4.01 15.79,-15.28 14.33,-26.86 -1.64,-13.1 -13.85,-25.22 -28.47,-23.39l-35.55 4.45 10.4 83.04 10.52 -1.32zm-9.22 -73.68l24.44 -3.06c8.07,-1.01 16.07,5.94 17.24,15.3 1.15,9.13 -3.56,18.03 -12.22,19.11l-25.15 3.15 -4.32 -34.5zm145.44 50.39l-18.82 -81.54 -10.33 2.39 18.82 81.54 10.33 -2.39zm106.1 -119.75l-64.68 22.13 3.06 8.92 27.32 -9.35 24.04 70.25 10.04 -3.44 -24.04 -70.25 27.32 -9.35 -3.05 -8.92zm100.35 40.11l-11.9 -26.31 35.76 -16.17 -3.64 -8.05 -35.76 16.17 -11.17 -24.7 41.13 -18.6 -3.89 -8.59 -50.8 22.97 34.48 76.25 51.76 -23.4 -3.88 -8.59 -42.1 19.04z"/>
  </g>
 </g>
</svg>
